<svg width="640" height="160" viewBox="0 0 320 80" xmlns="http://www.w3.org/2000/svg">
  <defs>
    <linearGradient id="bgGrad" x1="6" y1="4" x2="58" y2="60" gradientUnits="userSpaceOnUse">
      <stop offset="0" stop-color="#34c774"/>
      <stop offset="1" stop-color="#1f9d55"/>
    </linearGradient>
  </defs>
  <g transform="translate(8,8)">
    <rect x="4" y="4" width="56" height="56" rx="16" fill="url(#bgGrad)"/>
    <line x1="32" y1="33" x2="32" y2="17" stroke="#FFFFFF" stroke-width="3.4" stroke-linecap="round"/>
    <line x1="32" y1="33" x2="19" y2="45" stroke="#FFFFFF" stroke-width="3.4" stroke-linecap="round"/>
    <line x1="32" y1="33" x2="45" y2="45" stroke="#FFFFFF" stroke-width="3.4" stroke-linecap="round"/>
    <circle cx="32" cy="16" r="5.4" fill="#FFFFFF"/>
    <circle cx="18" cy="46" r="5.4" fill="#FFFFFF"/>
    <circle cx="46" cy="46" r="5.4" fill="#FFFFFF"/>
    <circle cx="32" cy="33" r="8.4" fill="#FFFFFF"/>
    <path d="M32 29.6c-1.9-2.3-5.6-1.1-5.6 1.7 0 2.3 2.7 3.9 5.6 6.4 2.9-2.5 5.6-4.1 5.6-6.4 0-2.8-3.7-4-5.6-1.7z" fill="#1f9d55"/>
  </g>
  <text x="84" y="47" font-family="Arial, Helvetica, sans-serif" font-size="30" font-weight="600" fill="#eef2ef">Care<tspan fill="#5fe39a">Hub</tspan></text>
</svg>
